<svg width="170" height="30" viewBox="0 0 170 30" fill="none" xmlns="http://www.w3.org/2000/svg">
<path d="M0 27.92H2.88C3.6 27.92 3.96 27.56 3.96 26.84V3.08C3.96 2.70666 3.86667 2.44 3.68 2.28C3.52 2.09333 3.25333 2 2.88 2H0V0.72H13.04C14.6133 0.72 16.08 1.01333 17.44 1.6C18.8267 2.18667 19.9333 3 20.76 4.04C21.5867 5.05333 22 6.21333 22 7.52C22 9.33333 21.3867 10.8267 20.16 12C18.9333 13.1733 17.5067 13.9333 15.88 14.28V14.44C16.9733 14.52 18.0533 14.8667 19.12 15.48C20.2133 16.0667 21.1067 16.88 21.8 17.92C22.52 18.96 22.88 20.1333 22.88 21.44C22.88 23.0667 22.4533 24.4667 21.6 25.64C20.7467 26.8133 19.6 27.7067 18.16 28.32C16.7467 28.9067 15.1867 29.2 13.48 29.2H0V27.92ZM12.88 13.68C15.04 13.68 16.5067 13.1333 17.28 12.04C18.08 10.92 18.48 9.41333 18.48 7.52C18.48 5.92 17.9733 4.6 16.96 3.56C15.9467 2.52 14.6933 2 13.2 2H8.72C8.34667 2 8.06667 2.09333 7.88 2.28C7.72 2.44 7.64 2.70666 7.64 3.08V13.68H12.88ZM13.04 27.92C14.6667 27.92 16 27.44 17.04 26.48C18.1067 25.4933 18.64 23.8133 18.64 21.44C18.64 19.0667 18.1067 17.4 17.04 16.44C16 15.4533 14.6667 14.96 13.04 14.96H7.64V26.84C7.64 27.56 8 27.92 8.72 27.92H13.04Z" fill="white"/>
<path d="M26.9756 27.92H28.4556C30.029 27.92 31.1756 26.9467 31.8956 25L40.4956 0.72H41.4956L50.1756 26.16C50.4423 26.8267 50.7623 27.2933 51.1356 27.56C51.509 27.8 51.989 27.92 52.5756 27.92H54.8156V29.2H42.4156V27.92H45.0556C45.4556 27.92 45.789 27.8267 46.0556 27.64C46.3223 27.4267 46.4556 27.1867 46.4556 26.92C46.4556 26.5733 46.4023 26.28 46.2956 26.04L44.4156 20.72H35.0556L34.0956 23.4C33.7223 24.4667 33.5356 25.24 33.5356 25.72C33.5356 26.3067 33.6823 26.8267 33.9756 27.28C34.269 27.7067 34.7756 27.92 35.4956 27.92H37.9356V29.2H26.9756V27.92ZM35.4956 19.44H43.9756L39.8156 7.24L35.4956 19.44Z" fill="white"/>
<path d="M61.6869 27.92H65.5269C66.2469 27.92 66.6069 27.56 66.6069 26.84V2.96C66.6069 2.58667 66.5269 2.32 66.3669 2.16C66.2069 1.97333 65.9269 1.88 65.5269 1.88H64.0869C62.4069 1.88 60.9535 2.73333 59.7269 4.44C58.9535 5.53333 58.4335 6.90667 58.1669 8.56C57.9002 10.1867 57.7669 11.3867 57.7669 12.16H56.6469L56.9669 0.72H79.9269L80.2469 12.16H79.1269C79.1269 11.3867 78.9935 10.1867 78.7269 8.56C78.4602 6.90667 77.9402 5.53333 77.1669 4.44C75.9402 2.73333 74.4869 1.88 72.8069 1.88H71.3669C70.9669 1.88 70.6869 1.97333 70.5269 2.16C70.3669 2.32 70.2869 2.58667 70.2869 2.96V26.84C70.2869 27.56 70.6469 27.92 71.3669 27.92H75.2069V29.2H61.6869V27.92Z" fill="white"/>
<path d="M82.5584 27.92H84.0384C85.6118 27.92 86.7584 26.9467 87.4784 25L96.0784 0.72H97.0784L105.758 26.16C106.025 26.8267 106.345 27.2933 106.718 27.56C107.092 27.8 107.572 27.92 108.158 27.92H110.398V29.2H97.9984V27.92H100.638C101.038 27.92 101.372 27.8267 101.638 27.64C101.905 27.4267 102.038 27.1867 102.038 26.92C102.038 26.5733 101.985 26.28 101.878 26.04L99.9984 20.72H90.6384L89.6784 23.4C89.3051 24.4667 89.1184 25.24 89.1184 25.72C89.1184 26.3067 89.2651 26.8267 89.5584 27.28C89.8518 27.7067 90.3584 27.92 91.0784 27.92H93.5184V29.2H82.5584V27.92ZM91.0784 19.44H99.5584L95.3984 7.24L91.0784 19.44Z" fill="white"/>
<path d="M126.905 29.92C125.785 29.92 124.679 29.68 123.585 29.2C122.519 28.6933 121.585 28.1467 120.785 27.56C119.665 26.7067 118.999 26.28 118.785 26.28C118.252 26.28 117.905 26.8533 117.745 28L117.585 29.6H116.665L116.385 16.96H117.345C117.505 18.9333 118.052 20.8267 118.985 22.64C119.945 24.4267 121.132 25.88 122.545 27C123.959 28.0933 125.412 28.64 126.905 28.64C129.092 28.64 130.679 28.1067 131.665 27.04C132.679 25.9733 133.185 24.6933 133.185 23.2C133.185 21.8933 132.799 20.8667 132.025 20.12C131.279 19.3733 130.172 18.7067 128.705 18.12L122.625 15.68C120.519 14.8267 118.959 13.7333 117.945 12.4C116.959 11.04 116.465 9.41333 116.465 7.52C116.465 4.96 117.212 3.06667 118.705 1.84C120.199 0.613333 122.065 0 124.305 0C126.065 0 128.012 0.8 130.145 2.4C130.412 2.58667 130.679 2.76 130.945 2.92C131.212 3.05333 131.452 3.12 131.665 3.12C132.119 3.12 132.385 2.8 132.465 2.16L132.625 0.72H133.585L133.985 11.12H133.025C132.599 9.2 131.919 7.49333 130.985 6C130.079 4.50667 129.012 3.34667 127.785 2.52C126.559 1.69333 125.292 1.28 123.985 1.28C122.492 1.28 121.265 1.77333 120.305 2.76C119.345 3.72 118.865 5.06667 118.865 6.8C118.865 8 119.172 8.93333 119.785 9.6C120.399 10.2667 121.305 10.84 122.505 11.32L130.225 14.4C132.012 15.12 133.345 16.1467 134.225 17.48C135.132 18.8133 135.585 20.2133 135.585 21.68C135.585 23.0933 135.265 24.4267 134.625 25.68C134.012 26.9333 133.052 27.96 131.745 28.76C130.465 29.5333 128.852 29.92 126.905 29.92Z" fill="white"/>
<path d="M141.75 27.92H144.63C145.35 27.92 145.71 27.56 145.71 26.84V3.08C145.71 2.36 145.35 2 144.63 2H141.75V0.72H153.35V2H150.47C149.75 2 149.39 2.36 149.39 3.08V13.6H161.47V3.08C161.47 2.36 161.11 2 160.39 2H157.51V0.72H169.11V2H166.23C165.51 2 165.15 2.36 165.15 3.08V26.84C165.15 27.56 165.51 27.92 166.23 27.92H169.11V29.2H157.51V27.92H160.39C161.11 27.92 161.47 27.56 161.47 26.84V14.88H149.39V26.84C149.39 27.56 149.75 27.92 150.47 27.92H153.35V29.2H141.75V27.92Z" fill="white"/>
</svg>
